<?xml version="1.0" encoding="utf-8"?>
<!-- Generator: Adobe Illustrator 18.0.0, SVG Export Plug-In . SVG Version: 6.00 Build 0)  -->
<!DOCTYPE svg PUBLIC "-//W3C//DTD SVG 1.1//EN" "http://www.w3.org/Graphics/SVG/1.1/DTD/svg11.dtd">
<svg version="1.1" id="Layer_1" xmlns="http://www.w3.org/2000/svg" xmlns:xlink="http://www.w3.org/1999/xlink" x="0px" y="0px"
	 viewBox="0 0 86 68" enable-background="new 0 0 86 68" xml:space="preserve">
<g>
	<defs>
		<rect id="SVGID_1_" y="0" width="86" height="68"/>
	</defs>
	<clipPath id="SVGID_2_">
		<use xlink:href="#SVGID_1_"  overflow="visible"/>
	</clipPath>
	<path clip-path="url(#SVGID_2_)" d="M9.3,0C8.1,0.3,7.4,1.1,7,1.9L6.2,6.2C2.6,7,0,10.2,0,14v46c0,4.4,3.5,8,7.9,8h70.2
		c4.4,0,7.9-3.6,7.9-8V14c0-4.4-3.5-8-7.9-8H23.8L23,1.9c-0.4-1.3-1.3-1.7-2.3-1.9H9.3z M21,2c0.5,1.2,0.5,2.9,0.8,4H8.2
		C8.5,4.7,8.6,3.2,9,2C13.1,2,17.4,2,21,2 M7.9,8h70.2c3.3,0,5.9,2.7,5.9,6v46c0,3.3-2.6,6-5.9,6H7.9C4.6,66,2,63.3,2,60V14
		C2,10.7,4.6,8,7.9,8 M43,13c-13.2,0-24,10.8-24,24c0,13.2,10.8,24,24,24s24-10.8,24-24C67,23.8,56.2,13,43,13 M43,15
		c12.2,0,22,9.8,22,22s-9.8,22-22,22s-22-9.8-22-22S30.8,15,43,15z M74,15c-1.7,0-3,1.3-3,3c0,1.7,1.3,3,3,3c1.7,0,3-1.3,3-3
		C77,16.3,75.7,15,74,15 M43,27c-5.5,0-10,4.5-10,10s4.5,10,10,10s10-4.5,10-10S48.5,27,43,27 M43,29c4.4,0,8,3.6,8,8s-3.6,8-8,8
		s-8-3.6-8-8S38.6,29,43,29"/>
</g>
</svg>
