<?xml version="1.0" encoding="utf-8"?>
<!-- Generator: Adobe Illustrator 18.0.0, SVG Export Plug-In . SVG Version: 6.00 Build 0)  -->
<!DOCTYPE svg PUBLIC "-//W3C//DTD SVG 1.1//EN" "http://www.w3.org/Graphics/SVG/1.1/DTD/svg11.dtd">
<svg version="1.1" id="Layer_1" xmlns="http://www.w3.org/2000/svg" xmlns:xlink="http://www.w3.org/1999/xlink" x="0px" y="0px"
	 viewBox="0 0 69.2 61.2" enable-background="new 0 0 69.2 61.2" xml:space="preserve">
<g>
	<defs>
		<rect id="SVGID_1_" y="0" width="69.2" height="61.2"/>
	</defs>
	<clipPath id="SVGID_2_">
		<use xlink:href="#SVGID_1_"  overflow="visible"/>
	</clipPath>
	<path clip-path="url(#SVGID_2_)" fill="none" stroke="#231F20" stroke-miterlimit="10" d="M59.1,20.8c0-0.1-3.5-5.6-0.6-9.3
		c1.6-2.1,1.9-4.7,0.8-7.6c-0.8-2.1-2-3.5-2-3.6"/>
	<path clip-path="url(#SVGID_2_)" fill="none" stroke="#231F20" stroke-miterlimit="10" d="M53.8,20.8c0-0.1-3.5-5.6-0.6-9.3
		c1.6-2.1,1.9-4.7,0.8-7.6c-0.8-2.1-2-3.5-2-3.6"/>
	<path clip-path="url(#SVGID_2_)" fill="none" stroke="#231F20" stroke-miterlimit="10" d="M65,47.5h-2.4C62,33.4,51,21.9,37.1,20.7
		v-1.1c1.4-0.8,2.3-2.4,2.3-4c0-2.6-2.1-4.7-4.7-4.7h-0.1c-2.6,0-4.7,2.1-4.7,4.7c0,1.7,0.9,3.2,2.3,4v1.1
		C18.2,21.9,7.2,33.4,6.6,47.5H4.2c-2.1,0-3.7,1.7-3.7,3.7v1.4c0,2.1,1.7,3.7,3.7,3.7H65c2.1,0,3.7-1.7,3.7-3.7v-1.4
		C68.7,49.1,67.1,47.5,65,47.5z"/>
	<line clip-path="url(#SVGID_2_)" fill="none" stroke="#231F20" stroke-miterlimit="10" x1="6.6" y1="47.5" x2="65" y2="47.5"/>
	<line clip-path="url(#SVGID_2_)" fill="none" stroke="#231F20" stroke-miterlimit="10" x1="0.5" y1="60.7" x2="68.7" y2="60.7"/>
</g>
</svg>
