<?xml version="1.0" encoding="utf-8"?>
<!-- Generator: Adobe Illustrator 18.0.0, SVG Export Plug-In . SVG Version: 6.00 Build 0)  -->
<!DOCTYPE svg PUBLIC "-//W3C//DTD SVG 1.1//EN" "http://www.w3.org/Graphics/SVG/1.1/DTD/svg11.dtd">
<svg version="1.1" id="Layer_1" xmlns="http://www.w3.org/2000/svg" xmlns:xlink="http://www.w3.org/1999/xlink" x="0px" y="0px"
	 viewBox="0 0 76.5 56.9" enable-background="new 0 0 76.5 56.9" xml:space="preserve">
<g>
	<defs>
		<rect id="SVGID_1_" y="0" width="76.5" height="56.9"/>
	</defs>
	<clipPath id="SVGID_2_">
		<use xlink:href="#SVGID_1_"  overflow="visible"/>
	</clipPath>
	<path clip-path="url(#SVGID_2_)" fill="none" stroke="#231F20" stroke-miterlimit="10" d="M37,48.5c-0.5,2.1,0.1,4.4,1.7,6
		c1.3,1.3,2.9,1.9,4.6,1.9c1.6,0,3.3-0.6,4.6-1.9c1.3-1.3,1.9-3,1.9-4.8c1.8,0.1,3.5-0.6,4.8-1.9c0.3-0.3,0.5-0.6,0.7-0.9
		C49.7,50.4,42.9,50,37,48.5z"/>
	<path clip-path="url(#SVGID_2_)" fill="none" stroke="#231F20" stroke-miterlimit="10" d="M34.7,16.2c-1.9-4.5-4.6-8.6-6.9-11
		c-3-3-7-4.7-11.3-4.7c-4.3,0-8.3,1.7-11.3,4.7c-6.2,6.2-6.2,16.4,0,22.6c3.7,3.7,11.6,8,18.6,9.4C23.1,25.5,29.3,19.3,34.7,16.2z"
		/>
	<path clip-path="url(#SVGID_2_)" fill="none" stroke="#231F20" stroke-miterlimit="10" d="M35.8,17.9c-10.9,6.3-10.3,16.7-9.9,20.5
		C40,21.6,61.1,22.4,61.1,22.4S31.2,32.7,22.4,53.3c-0.7,1.6,3.3,3.7,4.2,1.8c2.7-5.7,6.4-10,6.4-10c5.5,2.1,15.1,4.5,21.9-0.3
		c9-6.3,8.1-20.4,21-27.2C78.8,15.9,50.6,9.3,35.8,17.9z"/>
</g>
</svg>
