<?xml version="1.0" encoding="utf-8"?>
<!-- Generator: Adobe Illustrator 18.0.0, SVG Export Plug-In . SVG Version: 6.00 Build 0)  -->
<!DOCTYPE svg PUBLIC "-//W3C//DTD SVG 1.1//EN" "http://www.w3.org/Graphics/SVG/1.1/DTD/svg11.dtd">
<svg version="1.1" id="Layer_1" xmlns="http://www.w3.org/2000/svg" xmlns:xlink="http://www.w3.org/1999/xlink" x="0px" y="0px"
	 viewBox="0 0 62.6 49.2" enable-background="new 0 0 62.6 49.2" xml:space="preserve">
<g>
	<defs>
		<rect id="SVGID_1_" y="0" width="62.6" height="49.2"/>
	</defs>
	<clipPath id="SVGID_2_">
		<use xlink:href="#SVGID_1_"  overflow="visible"/>
	</clipPath>
	<path clip-path="url(#SVGID_2_)" fill="none" stroke="#000000" stroke-miterlimit="10" d="M4.9,38.4H1.8c-0.7,0-1.3,0.6-1.3,1.3
		c0,5,4,9,9,9h43.7c5,0,9-4,9-9c0-0.7-0.6-1.3-1.3-1.3h-6.1"/>
	<path clip-path="url(#SVGID_2_)" fill="none" stroke="#000000" stroke-miterlimit="10" d="M5.2,4.4V3.1c0-1.4,1.2-2.6,2.6-2.6h1.3
		c3.5,0,6.4,2.9,6.4,6.4v2l-3.2-3.2c-0.5-0.5-1.3-0.5-1.8,0c-0.5,0.5-0.5,1.3,0,1.8l3.2,3.2h-2C8.1,10.8,5.2,7.9,5.2,4.4z"/>
	<path clip-path="url(#SVGID_2_)" fill="none" stroke="#000000" stroke-miterlimit="10" d="M41.2,33c2.9,0,5.2-2.3,5.2-5.2
		s-2.3-5.2-5.2-5.2S36,24.9,36,27.7S38.3,33,41.2,33z"/>
	<line clip-path="url(#SVGID_2_)" fill="none" stroke="#000000" stroke-miterlimit="10" x1="4.9" y1="38.4" x2="59.2" y2="38.4"/>
	<path clip-path="url(#SVGID_2_)" fill="none" stroke="#000000" stroke-miterlimit="10" d="M41.7,10.8L41.7,10.8h-0.9
		c-9.3,0-16.9,7.6-16.9,16.9V28v0v0.5c0,3.6,1.1,7,3.2,9.8h28.4c2-2.8,3.2-6.3,3.2-9.8v-0.9C58.6,18.3,51,10.8,41.7,10.8z"/>
	<path clip-path="url(#SVGID_2_)" fill="none" stroke="#000000" stroke-miterlimit="10" d="M32,13.6c-1.7-3.8-5.4-6.2-9.6-6.2
		c-5.8,0-10.5,4.7-10.5,10.5c0,1.3,0.3,2.6,0.7,3.7c0.3,0,0.5,0,0.8,0c4.5,0,8.3,2.8,9.8,6.8c0.2,0,0.3,0,0.5,0c0,0,0.1,0,0.1,0"/>
	<path clip-path="url(#SVGID_2_)" fill="none" stroke="#000000" stroke-miterlimit="10" d="M21.7,38.4c1.3-1.8,2.2-4,2.2-6.4
		c0-5.8-4.7-10.5-10.5-10.5c-5.8,0-10.5,4.7-10.5,10.5c0,2.4,0.8,4.6,2.2,6.4H21.7z"/>
</g>
</svg>
