<?xml version="1.0" encoding="utf-8"?>
<!-- Generator: Adobe Illustrator 18.0.0, SVG Export Plug-In . SVG Version: 6.00 Build 0)  -->
<!DOCTYPE svg PUBLIC "-//W3C//DTD SVG 1.1//EN" "http://www.w3.org/Graphics/SVG/1.1/DTD/svg11.dtd">
<svg version="1.1" id="Layer_1" xmlns="http://www.w3.org/2000/svg" xmlns:xlink="http://www.w3.org/1999/xlink" x="0px" y="0px"
	 viewBox="0 0 62.2 57.5" enable-background="new 0 0 62.2 57.5" xml:space="preserve">
<g>
	<defs>
		<rect id="SVGID_1_" y="0" width="62.2" height="57.5"/>
	</defs>
	<clipPath id="SVGID_2_">
		<use xlink:href="#SVGID_1_"  overflow="visible"/>
	</clipPath>
	<path clip-path="url(#SVGID_2_)" fill="none" stroke="#231F20" stroke-miterlimit="10" d="M4.3,2.8C4,2.4,3.9,1.4,4.2,0.9l0.2-0.1
		l0.2-0.2C4.9,0.3,5.6,0.5,6,1l23.7,24.3h-3.5L4.3,2.8z"/>
	<path clip-path="url(#SVGID_2_)" fill="none" stroke="#231F20" stroke-miterlimit="10" d="M0.9,32.4C2.2,46.1,15.3,57,31.3,57
		c16.1,0,29.3-11.1,30.4-24.9l-0.2-4.5v-2.4c-0.2,0-0.6,0-0.9,0h-0.3h-8.6v4.9v2.4V42c0,2.3-1.9,4.3-4.3,4.3c-2.4,0-4.3-1.9-4.3-4.3
		V31.9c0-1-0.8-1.8-1.8-1.8c-1,0-1.8,0.8-1.8,1.8v3c0,2.3-1.9,4.3-4.3,4.3c-2.4,0-4.3-1.9-4.3-4.3v-2.3v-2.4v-4.9h-7.6h0h-22
		c-0.3,0-0.7,0-0.9,0v2.4l0.1,0.5L0.9,32.4z"/>
	<line clip-path="url(#SVGID_2_)" fill="none" stroke="#231F20" stroke-miterlimit="10" x1="0.5" y1="29.9" x2="31" y2="29.9"/>
	<line clip-path="url(#SVGID_2_)" fill="none" stroke="#231F20" stroke-miterlimit="10" x1="51.8" y1="30.1" x2="61.7" y2="30.1"/>
	<line clip-path="url(#SVGID_2_)" fill="none" stroke="#231F20" stroke-miterlimit="10" x1="31" y1="25.3" x2="52.7" y2="25.3"/>
</g>
</svg>
