<?xml version="1.0" encoding="utf-8"?>
<!-- Generator: Adobe Illustrator 18.0.0, SVG Export Plug-In . SVG Version: 6.00 Build 0)  -->
<!DOCTYPE svg PUBLIC "-//W3C//DTD SVG 1.1//EN" "http://www.w3.org/Graphics/SVG/1.1/DTD/svg11.dtd">
<svg version="1.1" id="Layer_1" xmlns="http://www.w3.org/2000/svg" xmlns:xlink="http://www.w3.org/1999/xlink" x="0px" y="0px"
	 viewBox="0 0 54.5 58.1" enable-background="new 0 0 54.5 58.1" xml:space="preserve">
<g>
	<defs>
		<rect id="SVGID_1_" y="0" width="54.5" height="58.1"/>
	</defs>
	<clipPath id="SVGID_2_">
		<use xlink:href="#SVGID_1_"  overflow="visible"/>
	</clipPath>
	<path clip-path="url(#SVGID_2_)" fill="none" stroke="#231F20" stroke-miterlimit="10" d="M47.9,2.9c-0.5-0.5-0.5-1.4,0-2
		c0.5-0.5,1.4-0.5,2,0l0.2,0.2c0.5,0.5,0.5,1.4,0,2c-0.3,0.3-0.6,0.4-1,0.4c-0.4,0-0.7-0.1-1-0.4L47.9,2.9z"/>
	<path clip-path="url(#SVGID_2_)" fill="none" stroke="#231F20" stroke-miterlimit="10" d="M47.7,18.3c2.2,0,4,1.8,4,4
		c0,2.2-1.8,4-4,4s-4-1.8-4-4C43.7,20.2,45.5,18.3,47.7,18.3z"/>
	<path clip-path="url(#SVGID_2_)" fill="none" stroke="#231F20" stroke-miterlimit="10" d="M54,38.5v1.7c0,2.2-1.8,3.9-3.9,3.9h-1.2
		v7.5c0,3.3-2.7,6-6,6H11.6c-3.3,0-6-2.7-6-6v-7.5H4.4c-2.2,0-3.9-1.8-3.9-3.9v-1.7c0-2.2,1.8-3.9,3.9-3.9h1.2v-4.1
		c0-0.8,0.6-1.4,1.4-1.4h40.6c0.8,0,1.4,0.6,1.4,1.4v4.1h1.2C52.3,34.6,54,36.3,54,38.5z"/>
	<path clip-path="url(#SVGID_2_)" fill="none" stroke="#231F20" stroke-miterlimit="10" d="M44.1,11.6c0.4,0,0.7-0.1,1-0.4l0.2-0.2
		c0.5-0.5,0.5-1.4,0-2c-0.5-0.5-1.4-0.5-2,0l-0.2,0.2c-0.5,0.5-0.5,1.4,0,2C43.4,11.5,43.7,11.6,44.1,11.6z"/>
	<path clip-path="url(#SVGID_2_)" fill="none" stroke="#231F20" stroke-miterlimit="10" d="M42.1,26.3c0-2.6-2.1-4.8-4.8-4.8
		c-2.6,0-4.8,2.1-4.8,4.8"/>
	<path clip-path="url(#SVGID_2_)" fill="none" stroke="#231F20" stroke-miterlimit="10" d="M6.6,24.2c-0.2-0.7,0.3-1.5,1-1.7
		L22.7,19l-0.3-1.1c-0.5-2.1,0.8-4.2,2.9-4.7l1.6-0.4c2.1-0.5,4.2,0.8,4.7,2.9l0.3,1.1l15.1-3.6c0.7-0.2,1.5,0.3,1.7,1
		c0.2,0.7-0.3,1.5-1,1.7L8.3,25.3c-0.1,0-0.2,0-0.3,0C7.3,25.3,6.8,24.9,6.6,24.2z"/>
	<line clip-path="url(#SVGID_2_)" fill="none" stroke="#231F20" stroke-miterlimit="10" x1="48.9" y1="34.6" x2="48.9" y2="44.1"/>
</g>
</svg>
