<?xml version="1.0" encoding="utf-8"?>
<!-- Generator: Adobe Illustrator 16.0.0, SVG Export Plug-In . SVG Version: 6.00 Build 0)  -->
<!DOCTYPE svg PUBLIC "-//W3C//DTD SVG 1.1//EN" "http://www.w3.org/Graphics/SVG/1.1/DTD/svg11.dtd">
<svg version="1.1" id="Layer_1" xmlns="http://www.w3.org/2000/svg" xmlns:xlink="http://www.w3.org/1999/xlink" x="0px" y="0px"
	 width="46.7px" height="54.3px" viewBox="0 0 46.7 54.3" enable-background="new 0 0 46.7 54.3" xml:space="preserve">
<g>
	<defs>
		<rect id="SVGID_1_" width="46.7" height="54.3"/>
	</defs>
	<clipPath id="SVGID_2_">
		<use xlink:href="#SVGID_1_"  overflow="visible"/>
	</clipPath>
	<path clip-path="url(#SVGID_2_)" d="M23.3,41.8c0.4,0,0.8-0.3,0.8-0.8V19.2c0-0.4-0.3-0.8-0.8-0.8s-0.8,0.3-0.8,0.8v21.9
		C22.6,41.399,22.9,41.8,23.3,41.8 M17.6,38.3c0.4,0,0.8-0.3,0.8-0.8V22.6c0-0.4-0.3-0.8-0.8-0.8c-0.4,0-0.8,0.3-0.8,0.8v15
		C16.9,38,17.2,38.3,17.6,38.3 M29.1,38.3c0.4,0,0.801-0.3,0.801-0.8V22.6c0-0.4-0.301-0.8-0.801-0.8c-0.399,0-0.8,0.3-0.8,0.8v15
		C28.4,38,28.7,38.3,29.1,38.3 M35.6,43.899c0,2.2-1.8,3.9-3.899,3.9H15c-2.2,0-3.9-1.8-3.9-3.9L10,12.5h26.8L35.6,43.899z
		 M16.9,7.6c0-0.6,0.5-1.1,1.1-1.1h11.4c0.6,0,1.1,0.5,1.1,1.1v3.3H16.9V7.6z M41,10.9h-9V7.6C32,6.2,30.8,5,29.4,5H18
		c-1.4,0-2.6,1.2-2.6,2.6v3.3H5.7c-0.4,0-0.8,0.3-0.8,0.8c0,0.4,0.3,0.8,0.8,0.8h2.7L9.5,44c0,3,2.4,5.399,5.4,5.399h16.8
		c3,0,5.399-2.399,5.399-5.399L38.2,12.5H41c0.4,0,0.8-0.3,0.8-0.8C41.7,11.2,41.4,10.9,41,10.9"/>
</g>
<g>
	<defs>
		<path id="SVGID_3_" d="M16.8,22.6v15c0.1,0.4,0.4,0.7,0.8,0.7s0.8-0.3,0.8-0.8V22.6c0-0.4-0.3-0.8-0.8-0.8
			C17.2,21.8,16.8,22.1,16.8,22.6 M28.3,22.6v15c0.101,0.4,0.4,0.7,0.8,0.7c0.4,0,0.801-0.3,0.801-0.8V22.6
			c0-0.4-0.301-0.8-0.801-0.8C28.7,21.8,28.3,22.1,28.3,22.6 M22.5,19.2v21.9c0.1,0.3,0.4,0.7,0.8,0.7c0.4,0,0.8-0.3,0.8-0.8V19.2
			c0-0.4-0.3-0.8-0.8-0.8S22.5,18.7,22.5,19.2 M11.1,43.899L10,12.5h26.8l-1.2,31.399c0,2.2-1.8,3.9-3.899,3.9H15
			C12.8,47.8,11.1,46,11.1,43.899 M16.9,7.6c0-0.6,0.5-1.1,1.1-1.1h11.4c0.6,0,1.1,0.5,1.1,1.1v3.3H16.9V7.6z M18,5
			c-1.4,0-2.6,1.2-2.6,2.6v3.3H5.7c-0.4,0-0.8,0.3-0.8,0.8c0,0.4,0.3,0.8,0.8,0.8h2.7L9.5,44c0,3,2.4,5.399,5.4,5.399h16.8
			c3,0,5.399-2.399,5.399-5.399L38.2,12.5H41c0.4,0,0.8-0.3,0.8-0.8c-0.1-0.5-0.399-0.8-0.8-0.8h-9V7.6C32,6.2,30.8,5,29.4,5H18z"/>
	</defs>
	<clipPath id="SVGID_4_">
		<use xlink:href="#SVGID_3_"  overflow="visible"/>
	</clipPath>
	<rect clip-path="url(#SVGID_4_)" width="46.7" height="54.3"/>
</g>
</svg>
