<?xml version="1.0" encoding="utf-8"?>
<!-- Generator: Adobe Illustrator 16.0.0, SVG Export Plug-In . SVG Version: 6.00 Build 0)  -->
<!DOCTYPE svg PUBLIC "-//W3C//DTD SVG 1.1//EN" "http://www.w3.org/Graphics/SVG/1.1/DTD/svg11.dtd">
<svg version="1.1" id="Layer_1" xmlns="http://www.w3.org/2000/svg" xmlns:xlink="http://www.w3.org/1999/xlink" x="0px" y="0px"
	 width="41.323px" height="50.9px" viewBox="0 0 41.323 50.9" enable-background="new 0 0 41.323 50.9" xml:space="preserve">
<g>
	<defs>
		<rect id="SVGID_1_" width="41.323" height="50.9"/>
	</defs>
	<clipPath id="SVGID_2_">
		<use xlink:href="#SVGID_1_"  overflow="visible"/>
	</clipPath>
	<path clip-path="url(#SVGID_2_)" fill="none" stroke="#000000" stroke-miterlimit="10" d="M37.515,50.4
		c-0.024,0-0.036-0.012-0.036-0.036c0.033-0.305,0.072-0.663,0.116-1.063c0.581-5.268,2.079-18.071,2.909-19.145
		c0.023-0.036,0.047-0.07,0.059-0.119c0.155-0.535,0.93-3.811-1.25-5.514c-0.56-0.44-8.548-9.362-11.347-11.898
		c-0.012-0.012-0.012-0.012-0.012-0.024 M27.904,29.382v2.513c0,0.809-0.56,1.5-1.31,1.714H26.57
		c-1.273-0.689-2.773-3.644-3.001-4.107c-0.022-0.036-0.034-0.083-0.034-0.119c-0.084-0.75-0.93-8.014-4.799-8.014
		c-0.107,0-0.215,0-0.322,0.012c0,0-3.096,0.262-0.536,9.086c0,0.022,0.012,0.035,0.012,0.059l1.132,9.777
		c0,0.012,0,0.023,0.011,0.047c0.096,0.37,1.382,5.358,4.704,8.896c0.061,0.071,0.096,0.155,0.096,0.25v0.846"/>
	
		<line clip-path="url(#SVGID_2_)" fill="none" stroke="#000000" stroke-miterlimit="10" x1="8.637" y1="40.913" x2="8.578" y2="0.4"/>
	<path clip-path="url(#SVGID_2_)" fill="none" stroke="#000000" stroke-miterlimit="10" d="M19.221,41.013H3.202
		c-1.485,0-2.7-1.215-2.7-2.7L0.5,27.451V9.907L0.5,3.202C0.5,1.717,1.716,0.501,3.202,0.501h2.186L21.472,0.5h3.786
		c1.485,0.001,2.701,1.216,2.701,2.701l0.001,28.12"/>
</g>
</svg>
