<?xml version="1.0" encoding="utf-8"?>
<!-- Generator: Adobe Illustrator 16.0.0, SVG Export Plug-In . SVG Version: 6.00 Build 0)  -->
<!DOCTYPE svg PUBLIC "-//W3C//DTD SVG 1.1//EN" "http://www.w3.org/Graphics/SVG/1.1/DTD/svg11.dtd">
<svg version="1.1" id="Layer_1" xmlns="http://www.w3.org/2000/svg" xmlns:xlink="http://www.w3.org/1999/xlink" x="0px" y="0px"
	 width="64.149px" height="51px" viewBox="0 0 64.149 51" enable-background="new 0 0 64.149 51" xml:space="preserve">
<g>
	<defs>
		<rect id="SVGID_1_" width="64.149" height="51"/>
	</defs>
	<clipPath id="SVGID_2_">
		<use xlink:href="#SVGID_1_"  overflow="visible"/>
	</clipPath>
	<polygon clip-path="url(#SVGID_2_)" fill="none" stroke="#010101" stroke-miterlimit="10" points="38.841,0.5 52.97,0.5 
		63.198,15.317 38.841,15.385 	"/>
	<polygon clip-path="url(#SVGID_2_)" fill="none" stroke="#010101" stroke-miterlimit="10" points="11.18,0.5 25.309,0.5 
		25.309,15.385 0.951,15.317 	"/>
	<path clip-path="url(#SVGID_2_)" fill="none" stroke="#010101" stroke-miterlimit="10" d="M63.198,50.5H0.951V15.317h24.358v14.885
		c0,0.547,0.33,1.041,0.835,1.25c0.506,0.209,1.088,0.094,1.475-0.293l4.456-4.456l4.456,4.455c0.259,0.26,0.605,0.396,0.957,0.396
		c0.175,0,0.352-0.033,0.519-0.103c0.506-0.21,0.835-0.703,0.835-1.25V15.317h24.357V50.5z"/>
	
		<line clip-path="url(#SVGID_2_)" fill="none" stroke="#010101" stroke-miterlimit="10" x1="25.309" y1="0.5" x2="38.841" y2="0.5"/>
	
		<line clip-path="url(#SVGID_2_)" fill="none" stroke="#010101" stroke-miterlimit="10" x1="25.309" y1="15.316" x2="38.841" y2="15.316"/>
</g>
</svg>
