<?xml version="1.0" encoding="utf-8"?>
<!-- Generator: Adobe Illustrator 16.0.0, SVG Export Plug-In . SVG Version: 6.00 Build 0)  -->
<!DOCTYPE svg PUBLIC "-//W3C//DTD SVG 1.1//EN" "http://www.w3.org/Graphics/SVG/1.1/DTD/svg11.dtd">
<svg version="1.1" id="Layer_1" xmlns="http://www.w3.org/2000/svg" xmlns:xlink="http://www.w3.org/1999/xlink" x="0px" y="0px"
	 width="58.832px" height="70px" viewBox="0 0 58.832 70" enable-background="new 0 0 58.832 70" xml:space="preserve">
<g>
	<defs>
		<rect id="SVGID_1_" width="58.832" height="70"/>
	</defs>
	<clipPath id="SVGID_2_">
		<use xlink:href="#SVGID_1_"  overflow="visible"/>
	</clipPath>
	<path clip-path="url(#SVGID_2_)" d="M29.815,70C18.53,70,1.222,68.608,0.182,61.351c-0.034-0.233-0.196-3.07-0.181-3.348
		c0.4-7.408,8.464-17.391,22.12-21.402c1.048-0.308,4.016-1.222,6.955-1.272c2.939-0.051,5.848,0.761,6.777,1.011
		c13.605,3.655,21.903,13.217,22.953,20.671c0.087,0.62-0.068,4.316-0.139,4.645C57.196,68.647,40.214,70,29.089,70H29.815z"/>
	<path clip-path="url(#SVGID_2_)" d="M29.869,30.894c-8.537,0-15.411-6.946-15.411-15.411C14.458,7.018,21.333,0,29.869,0
		C38.406,0,45.28,6.946,45.28,15.411S38.335,30.894,29.869,30.894"/>
</g>
</svg>
