<?xml version="1.0" encoding="utf-8"?>
<!-- Generator: Adobe Illustrator 16.0.0, SVG Export Plug-In . SVG Version: 6.00 Build 0)  -->
<!DOCTYPE svg PUBLIC "-//W3C//DTD SVG 1.1//EN" "http://www.w3.org/Graphics/SVG/1.1/DTD/svg11.dtd">
<svg version="1.1" id="Layer_1" xmlns="http://www.w3.org/2000/svg" xmlns:xlink="http://www.w3.org/1999/xlink" x="0px" y="0px"
	 width="55.744px" height="70px" viewBox="0 0 55.744 70" enable-background="new 0 0 55.744 70" xml:space="preserve">
<g>
	<defs>
		<rect id="SVGID_1_" width="55.744" height="70"/>
	</defs>
	<clipPath id="SVGID_2_">
		<use xlink:href="#SVGID_1_"  overflow="visible"/>
	</clipPath>
	<path clip-path="url(#SVGID_2_)" d="M27.872,0L27.872,0C12.48,0,0,12.478,0,27.87C0,51.036,27.872,70,27.872,70
		s27.872-20.358,27.872-42.132C55.744,12.476,43.265,0,27.872,0 M22.356,13.381l5.319-3.675c0.117-0.08,0.275-0.08,0.392,0
		l13.027,9.002c0.095,0.064,0.15,0.171,0.15,0.281c0,0.114-0.056,0.22-0.15,0.283l-5.688,3.931
		c-0.058,0.041-0.128,0.063-0.194,0.063c-0.073,0-0.145-0.025-0.205-0.066l-12.659-9.256c-0.089-0.066-0.143-0.173-0.141-0.281
		C22.21,13.549,22.263,13.446,22.356,13.381 M27.15,43.381c0,0.125-0.07,0.245-0.184,0.305c-0.048,0.026-0.103,0.039-0.158,0.039
		c-0.071,0-0.136-0.021-0.197-0.061l-12.769-8.826c-0.094-0.064-0.15-0.168-0.15-0.283V21.018c0-0.127,0.071-0.243,0.185-0.305
		c0.112-0.056,0.249-0.05,0.354,0.023l12.772,8.825c0.094,0.063,0.146,0.169,0.146,0.284V43.381z M27.872,28.336
		c-0.069,0-0.136-0.022-0.196-0.062l-13.026-9.002c-0.094-0.063-0.15-0.169-0.15-0.282c0-0.111,0.056-0.218,0.15-0.282l5.683-3.928
		c0.121-0.083,0.279-0.08,0.399,0.006l12.659,9.258c0.091,0.063,0.143,0.169,0.142,0.28v0.001c-0.003,0.111-0.058,0.214-0.15,0.277
		l-5.314,3.672C28.008,28.314,27.941,28.336,27.872,28.336 M42.052,34.555c0,0.115-0.056,0.219-0.149,0.283l-12.77,8.826
		c-0.061,0.039-0.127,0.061-0.196,0.061c-0.056,0-0.11-0.013-0.159-0.039c-0.113-0.06-0.184-0.18-0.184-0.305V29.845
		c0-0.115,0.053-0.221,0.148-0.284l12.771-8.826c0.104-0.072,0.241-0.078,0.353-0.022c0.115,0.062,0.186,0.178,0.186,0.305V34.555z"
		/>
</g>
</svg>
