<?xml version="1.0" encoding="utf-8"?>
<!-- Generator: Adobe Illustrator 16.0.0, SVG Export Plug-In . SVG Version: 6.00 Build 0)  -->
<!DOCTYPE svg PUBLIC "-//W3C//DTD SVG 1.1//EN" "http://www.w3.org/Graphics/SVG/1.1/DTD/svg11.dtd">
<svg version="1.1" id="Layer_1" xmlns="http://www.w3.org/2000/svg" xmlns:xlink="http://www.w3.org/1999/xlink" x="0px" y="0px"
	 width="85px" height="85px" viewBox="0 0 85 85" enable-background="new 0 0 85 85" xml:space="preserve">
<g>
	<defs>
		<rect id="SVGID_1_" width="85" height="85"/>
	</defs>
	<clipPath id="SVGID_2_">
		<use xlink:href="#SVGID_1_"  overflow="visible"/>
	</clipPath>
	<path clip-path="url(#SVGID_2_)" fill="#53585F" d="M42.5,85C65.9,85,85,65.9,85,42.5C85,19.1,65.9,0,42.5,0C19.1,0,0,19.1,0,42.5
		C0,65.9,19.1,85,42.5,85 M42.5,5C63.2,5,80,21.8,80,42.5S63.2,80,42.5,80S5,63.2,5,42.5S21.8,5,42.5,5"/>
	<polygon clip-path="url(#SVGID_2_)" fill="#53585F" points="62.5,40 45,40 45,12.5 40,12.5 40,45 62.5,45 	"/>
</g>
</svg>
