<?xml version="1.0" encoding="utf-8"?>
<!-- Generator: Adobe Illustrator 16.0.0, SVG Export Plug-In . SVG Version: 6.00 Build 0)  -->
<!DOCTYPE svg PUBLIC "-//W3C//DTD SVG 1.1//EN" "http://www.w3.org/Graphics/SVG/1.1/DTD/svg11.dtd">
<svg version="1.1" id="Layer_1" xmlns="http://www.w3.org/2000/svg" xmlns:xlink="http://www.w3.org/1999/xlink" x="0px" y="0px"
	 width="86px" height="76.001px" viewBox="0 0 86 76.001" enable-background="new 0 0 86 76.001" xml:space="preserve">
<g>
	<defs>
		<rect id="SVGID_1_" width="86" height="76.001"/>
	</defs>
	<clipPath id="SVGID_2_">
		<use xlink:href="#SVGID_1_"  overflow="visible"/>
	</clipPath>
	<path clip-path="url(#SVGID_2_)" fill="#53585F" d="M13.813,0.001c-0.478,0.091-0.821,0.513-0.813,1v19H5c-2.753,0-5,2.247-5,5v26
		c0,2.753,2.247,5,5,5H13v19c0.001,0.552,0.448,1,1.001,1h58c0.552,0,0.998-0.448,1-1v-19h8c2.752,0,5-2.247,5-5v-26
		c0-2.753-2.248-5-5-5h-8v-7c0.006-0.268-0.097-0.526-0.282-0.719l-12-12c-0.192-0.186-0.451-0.287-0.718-0.281H14
		C13.968,0,13.938,0,13.907,0.001C13.875,0,13.843,0,13.813,0.001 M15,2.001h44.562l11.438,11.437v10.563H15V2.001z M5,22.001H13v3
		c0.001,0.552,0.448,1,1.001,1h58c0.552,0,0.998-0.448,1-1v-3h8c1.679,0,3,1.321,3,3v26c0,1.679-1.321,3-3,3h-8v-3
		c-0.002-0.552-0.448-1-1-1H14c-0.063-0.006-0.126-0.006-0.188,0c-0.478,0.091-0.821,0.513-0.813,1v3H5c-1.68,0-3-1.321-3-3v-26
		C2,23.322,3.32,22.001,5,22.001 M15,52.001h56v22H15V52.001z M21.813,58.001c-0.552,0.052-0.958,0.541-0.906,1.094
		c0.052,0.553,0.541,0.958,1.093,0.906h42.001c0.552,0.008,1.006-0.434,1.014-0.986c0.007-0.552-0.435-1.006-0.986-1.014
		c-0.01,0-0.019,0-0.027,0H22C21.938,57.995,21.875,57.995,21.813,58.001 M21.813,66.001c-0.552,0.052-0.958,0.541-0.906,1.094
		c0.052,0.553,0.541,0.958,1.093,0.906h42.001c0.552,0.008,1.006-0.434,1.014-0.986c0.007-0.552-0.435-1.006-0.986-1.014
		c-0.01,0-0.019,0-0.027,0H22C21.938,65.995,21.875,65.995,21.813,66.001"/>
</g>
</svg>
