<?xml version="1.0" encoding="utf-8"?>
<!-- Generator: Adobe Illustrator 16.0.0, SVG Export Plug-In . SVG Version: 6.00 Build 0)  -->
<!DOCTYPE svg PUBLIC "-//W3C//DTD SVG 1.1//EN" "http://www.w3.org/Graphics/SVG/1.1/DTD/svg11.dtd">
<svg version="1.1" id="Layer_1" xmlns="http://www.w3.org/2000/svg" xmlns:xlink="http://www.w3.org/1999/xlink" x="0px" y="0px"
	 width="47px" height="29px" viewBox="0 0 47 29" enable-background="new 0 0 47 29" xml:space="preserve">
<g>
	<defs>
		<rect id="SVGID_1_" width="47" height="29"/>
	</defs>
	<clipPath id="SVGID_2_">
		<use xlink:href="#SVGID_1_"  overflow="visible"/>
	</clipPath>
	<path clip-path="url(#SVGID_2_)" fill="#53585F" d="M41.4,24.8H5.6c-0.6,0-1-0.399-1-1c0-10.4,8.5-18.9,18.9-18.9
		c10.4,0,18.9,8.5,18.9,18.9C42.4,24.4,41.9,24.8,41.4,24.8 M6.7,22.8h33.7C39.8,14,32.5,7,23.5,7S7.2,14,6.7,22.8"/>
	<path clip-path="url(#SVGID_2_)" fill="#53585F" d="M46,29H1c-0.6,0-1-0.4-1-1s0.4-1,1-1h45c0.6,0,1,0.4,1,1S46.6,29,46,29"/>
	<path clip-path="url(#SVGID_2_)" fill="#53585F" d="M23.4,5.8c-0.601,0-1-0.4-1-1V1.6c0-0.6,0.4-1,1-1c0.6,0,1,0.4,1,1v3.2
		C24.4,5.3,23.9,5.8,23.4,5.8"/>
	<path clip-path="url(#SVGID_2_)" fill="#53585F" d="M25.9,2h-5.2c-0.6,0-1-0.4-1-1s0.4-1,1-1h5.2c0.6,0,1,0.4,1,1S26.5,2,25.9,2"/>
</g>
</svg>
