<?xml version="1.0" encoding="utf-8"?>
<!-- Generator: Adobe Illustrator 16.0.0, SVG Export Plug-In . SVG Version: 6.00 Build 0)  -->
<!DOCTYPE svg PUBLIC "-//W3C//DTD SVG 1.1//EN" "http://www.w3.org/Graphics/SVG/1.1/DTD/svg11.dtd">
<svg version="1.1" id="Layer_1" xmlns="http://www.w3.org/2000/svg" xmlns:xlink="http://www.w3.org/1999/xlink" x="0px" y="0px"
	 width="88.819px" height="79.406px" viewBox="0 0 88.819 79.406" enable-background="new 0 0 88.819 79.406" xml:space="preserve">
<g>
	<defs>
		<rect id="SVGID_1_" width="88.82" height="79.406"/>
	</defs>
	<clipPath id="SVGID_2_">
		<use xlink:href="#SVGID_1_"  overflow="visible"/>
	</clipPath>
	<path clip-path="url(#SVGID_2_)" fill="none" stroke="#53585F" stroke-width="2" stroke-miterlimit="10" d="M43.856,77.312
		c0.187,0.094,0.468,0.094,0.75,0.094c0.282,0,0.469,0,0.75-0.094c1.22-0.468,30.471-11.532,39.191-38.066
		c2.813-8.532,2.157-17.533-1.688-24.471C79.673,8.962,74.42,4.93,68.139,3.43c-6.938-1.688-14.626,1.125-23.533,8.532
		C35.699,4.555,28.01,1.742,21.166,3.43C14.884,4.93,9.634,8.962,6.445,14.775c-3.938,7.032-4.5,15.939-1.688,24.471
		C13.384,65.78,42.637,76.844,43.856,77.312"/>
</g>
</svg>
