<?xml version="1.0" encoding="utf-8"?>
<!-- Generator: Adobe Illustrator 18.0.0, SVG Export Plug-In . SVG Version: 6.00 Build 0)  -->
<!DOCTYPE svg PUBLIC "-//W3C//DTD SVG 1.1//EN" "http://www.w3.org/Graphics/SVG/1.1/DTD/svg11.dtd">
<svg version="1.1" id="Layer_1" xmlns="http://www.w3.org/2000/svg" xmlns:xlink="http://www.w3.org/1999/xlink" x="0px" y="0px"
	 viewBox="0 0 42.8 58.4" enable-background="new 0 0 42.8 58.4" xml:space="preserve">
<g>
	<defs>
		<rect id="SVGID_1_" y="0" width="42.8" height="58.4"/>
	</defs>
	<clipPath id="SVGID_2_">
		<use xlink:href="#SVGID_1_"  overflow="visible"/>
	</clipPath>
	<path clip-path="url(#SVGID_2_)" fill="none" stroke="#231F20" stroke-miterlimit="10" d="M42.3,1.8v47c0,0.7-0.6,1.3-1.3,1.3H16.1
		v6.4c0,0.5-0.2,0.9-0.6,1.1c-0.4,0.2-0.9,0.3-1.3,0.1l-3.3-1.5l-3.3,1.5c-0.2,0.1-0.4,0.1-0.5,0.1c-0.3,0-0.5-0.1-0.7-0.2
		c-0.4-0.2-0.6-0.7-0.6-1.1v-6.4H1.8c-0.7,0-1.3-0.6-1.3-1.3v-47c0-0.7,0.6-1.3,1.3-1.3H41C41.7,0.5,42.3,1.1,42.3,1.8z"/>
	<path clip-path="url(#SVGID_2_)" fill="none" stroke="#231F20" stroke-miterlimit="10" d="M9.5,23c0-2.9,2.3-5.2,5.2-5.2
		c0.5,0,0.9,0.1,1.4,0.2c0.9-1.6,2.6-2.6,4.5-2.6c1.9,0,3.6,1,4.5,2.6c0.4-0.1,0.9-0.2,1.4-0.2c2.9,0,5.2,2.3,5.2,5.2
		s-2.3,5.2-5.2,5.2c-0.1,0-0.2,0-0.3,0V34c0,0.7-0.6,1.3-1.3,1.3h-8.4c-0.7,0-1.3-0.6-1.3-1.3v-5.8c-0.1,0-0.2,0-0.3,0
		C11.9,28.2,9.5,25.8,9.5,23z"/>
	<line clip-path="url(#SVGID_2_)" fill="none" stroke="#231F20" stroke-miterlimit="10" x1="5.7" y1="50.1" x2="21.4" y2="50.1"/>
</g>
</svg>
