<?xml version="1.0" encoding="utf-8"?>
<!-- Generator: Adobe Illustrator 18.0.0, SVG Export Plug-In . SVG Version: 6.00 Build 0)  -->
<!DOCTYPE svg PUBLIC "-//W3C//DTD SVG 1.1//EN" "http://www.w3.org/Graphics/SVG/1.1/DTD/svg11.dtd">
<svg version="1.1" id="Layer_1" xmlns="http://www.w3.org/2000/svg" xmlns:xlink="http://www.w3.org/1999/xlink" x="0px" y="0px"
	 viewBox="0 0 43.8 51" enable-background="new 0 0 43.8 51" xml:space="preserve">
<g>
	<defs>
		<rect id="SVGID_1_" x="0" width="43.8" height="51"/>
	</defs>
	<clipPath id="SVGID_2_">
		<use xlink:href="#SVGID_1_"  overflow="visible"/>
	</clipPath>
	
		<path clip-path="url(#SVGID_2_)" fill="none" stroke="#545860" stroke-linecap="round" stroke-linejoin="round" stroke-miterlimit="10" d="
		M21,27.3c-0.8,0.4-1.7,0.6-2.6,0.6c-3.4,0-6.1-2.9-6.1-6.5s2.7-6.5,6.1-6.5c1.7,0,3.3,0.7,4.4,2c1.1-1.3,2.7-2,4.4-2
		c3.4,0,6.1,2.9,6.1,6.5c0,2.9-1.8,5.5-4.4,6.3"/>
	
		<path clip-path="url(#SVGID_2_)" fill="none" stroke="#545860" stroke-linecap="round" stroke-linejoin="round" stroke-miterlimit="10" d="
		M29.6,27.3v8.2c0,0.2-0.2,0.4-0.4,0.4H16.4c-0.2,0-0.4-0.2-0.4-0.4v-8.2"/>
	<path clip-path="url(#SVGID_2_)" fill="none" stroke="#545860" stroke-miterlimit="10" d="M2.2,42.4v5.5c0,1.4,1.2,2.6,2.6,2.6
		h35.9c1.4,0,2.6-1.2,2.6-2.6V3.1c0-1.4-1.2-2.6-2.6-2.6H4.8c-1.4,0-2.6,1.2-2.6,2.6v6.3"/>
	
		<line clip-path="url(#SVGID_2_)" fill="none" stroke="#545860" stroke-linecap="round" stroke-linejoin="round" stroke-miterlimit="10" x1="0.5" y1="11" x2="4" y2="11"/>
	<line clip-path="url(#SVGID_2_)" fill="none" stroke="#545860" stroke-miterlimit="10" x1="2.2" y1="12.6" x2="2.2" y2="15.2"/>
	
		<line clip-path="url(#SVGID_2_)" fill="none" stroke="#545860" stroke-linecap="round" stroke-linejoin="round" stroke-miterlimit="10" x1="0.5" y1="16.7" x2="4" y2="16.7"/>
	<line clip-path="url(#SVGID_2_)" fill="none" stroke="#545860" stroke-miterlimit="10" x1="2.2" y1="18.3" x2="2.2" y2="20.9"/>
	
		<line clip-path="url(#SVGID_2_)" fill="none" stroke="#545860" stroke-linecap="round" stroke-linejoin="round" stroke-miterlimit="10" x1="0.5" y1="22.5" x2="4" y2="22.5"/>
	<line clip-path="url(#SVGID_2_)" fill="none" stroke="#545860" stroke-miterlimit="10" x1="2.2" y1="24.1" x2="2.2" y2="26.7"/>
	
		<line clip-path="url(#SVGID_2_)" fill="none" stroke="#545860" stroke-linecap="round" stroke-linejoin="round" stroke-miterlimit="10" x1="0.5" y1="28.2" x2="4" y2="28.2"/>
	<line clip-path="url(#SVGID_2_)" fill="none" stroke="#545860" stroke-miterlimit="10" x1="2.2" y1="29.9" x2="2.2" y2="32.5"/>
	
		<line clip-path="url(#SVGID_2_)" fill="none" stroke="#545860" stroke-linecap="round" stroke-linejoin="round" stroke-miterlimit="10" x1="0.5" y1="34" x2="4" y2="34"/>
	<line clip-path="url(#SVGID_2_)" fill="none" stroke="#545860" stroke-miterlimit="10" x1="2.2" y1="35.6" x2="2.2" y2="38.2"/>
	
		<line clip-path="url(#SVGID_2_)" fill="none" stroke="#545860" stroke-linecap="round" stroke-linejoin="round" stroke-miterlimit="10" x1="0.5" y1="39.7" x2="4" y2="39.7"/>
	<line clip-path="url(#SVGID_2_)" fill="none" stroke="#545860" stroke-miterlimit="10" x1="2.2" y1="41.4" x2="2.2" y2="44"/>
</g>
</svg>
