<?xml version="1.0" encoding="utf-8"?>
<!-- Generator: Adobe Illustrator 18.0.0, SVG Export Plug-In . SVG Version: 6.00 Build 0)  -->
<!DOCTYPE svg PUBLIC "-//W3C//DTD SVG 1.1//EN" "http://www.w3.org/Graphics/SVG/1.1/DTD/svg11.dtd">
<svg version="1.1" id="Layer_1" xmlns="http://www.w3.org/2000/svg" xmlns:xlink="http://www.w3.org/1999/xlink" x="0px" y="0px"
	 viewBox="0 0 26.5 51" enable-background="new 0 0 26.5 51" xml:space="preserve">
<g>
	<defs>
		<rect id="SVGID_1_" width="26.5" height="51"/>
	</defs>
	<clipPath id="SVGID_2_">
		<use xlink:href="#SVGID_1_"  overflow="visible"/>
	</clipPath>
	<path clip-path="url(#SVGID_2_)" fill="none" stroke="#53585F" stroke-miterlimit="10" d="M16.2,29.5l-1-0.5l-1.9-1
		c-0.1,0-0.3-0.1-0.6-0.1c-0.2,0-0.3,0-0.4,0c-0.1,0-0.2,0.1-0.2,0.1l-1.1,0.6L10.3,29l-1,0.5c-0.5,0.3-1.1,0.4-1.6,0.4
		c-0.8,0-1.5-0.3-2-0.8L3.3,47.6c-0.2,1.4,0.8,2.7,2.2,2.9c1.4,0.2,2.7-0.8,2.9-2.2L11,29h1.5l2.6,19.2c0.2,1.4,1.5,2.4,2.9,2.2
		c1.4-0.2,2.4-1.5,2.2-2.9l-2.4-17.6c0,0,0,0,0,0C17.3,29.9,16.8,29.8,16.2,29.5z"/>
	<path clip-path="url(#SVGID_2_)" fill="none" stroke="#53585F" stroke-miterlimit="10" d="M12.8,8.8c0.5,0,1,0.2,1.5,0.4
		c1-0.6,1.8-1.7,2.1-2.9c0.6-2.5-1-5.1-3.5-5.7c-2.5-0.6-5.1,1-5.7,3.5c-0.6,2.5,1,5.1,3.5,5.7C11.2,9.2,12,8.8,12.8,8.8z"/>
	<path clip-path="url(#SVGID_2_)" fill="none" stroke="#53585F" stroke-miterlimit="10" d="M6.1,14.5l1.6-0.2c0.3,0,0.9-0.5,1-0.7
		l0.5-1.1l0.5-1.1h-2c-0.3,0-0.5,0.1-0.7,0.2c-0.2,0.1-0.4,0.2-0.6,0.4c0,0-1.1,1.2-2.3,2.8c0.1,0,0.3-0.1,0.4-0.1L6.1,14.5z"/>
	<path clip-path="url(#SVGID_2_)" fill="none" stroke="#53585F" stroke-miterlimit="10" d="M24.8,1.3C23.9,1,23,1.6,22.7,2.5
		c-1.3,4.5-3.2,6.7-4.6,7.8c-0.7,0.5-1.4,0.8-1.8,1c-0.2,0.1-0.3,0.1-0.4,0.1c0,0,0,0-0.1,0l0,0l1,2.1c0.1,0.2,0.3,0.4,0.6,0.5
		c0.2,0.1,0.3,0.2,0.4,0.2l0,0c0.6-0.3,1.4-0.7,2.2-1.3c2.1-1.6,4.4-4.5,5.8-9.6C26.2,2.5,25.7,1.5,24.8,1.3z"/>
	<path clip-path="url(#SVGID_2_)" fill="none" stroke="#53585F" stroke-miterlimit="10" d="M6.1,25c0.1,0,0.1,0,0.2,0
		c0.4-0.1,0.7-0.2,1.1-0.3c0.5-0.2,1.1-0.3,1.8-0.6c0.9-0.3,1.3-1.3,1-2.1c-0.2-0.5-0.6-0.9-1-1c-0.4-0.1-0.7-0.1-1.1,0
		c-0.3,0.1-0.6,0.2-0.9,0.3c-0.4,0.1-0.7,0.2-1.1,0.3c-0.5,0.1-0.8,0.2-1.2,0.3c-0.3,0-0.6,0.1-0.8,0.1c0,0,0,0,0,0
		c-0.1,0-0.2,0-0.2,0c0-0.2,0.1-0.5,0.3-0.8l-1.3-1.2c-0.5-0.5-0.9-1.1-1-1.7c-0.1,0.2-0.2,0.4-0.3,0.6c-0.6,1.1-1,2.2-1,3.4
		c0,0.5,0.1,1.1,0.4,1.6c0.3,0.5,0.8,1,1.3,1.2c0,0,0,0,0,0c0.6,0.3,1.2,0.4,1.9,0.4h0c0.3,0,0.7,0,1.1-0.1
		C5.5,25.1,5.8,25.1,6.1,25z"/>
	<line clip-path="url(#SVGID_2_)" fill="none" stroke="#53585F" stroke-miterlimit="10" x1="9.7" y1="11.4" x2="10.6" y2="9.8"/>
	<path clip-path="url(#SVGID_2_)" fill="none" stroke="#53585F" stroke-miterlimit="10" d="M14.3,9.3c0,0,1.4,1.7,1.6,2.1"/>
	<path clip-path="url(#SVGID_2_)" fill="none" stroke="#53585F" stroke-miterlimit="10" d="M4.1,14.8c0,0-2.8,0.8-2.2,3.3"/>
	<line clip-path="url(#SVGID_2_)" fill="none" stroke="#53585F" stroke-miterlimit="10" x1="4.1" y1="21" x2="4.9" y2="21.8"/>
	<path clip-path="url(#SVGID_2_)" fill="none" stroke="#53585F" stroke-miterlimit="10" d="M5.7,29.1c0,0-1.1-1.3,0.3-4.1"/>
	<path clip-path="url(#SVGID_2_)" fill="none" stroke="#53585F" stroke-miterlimit="10" d="M22.2,20.6l-0.9,0.8l-0.9,0.8
		c-0.2,0.2-0.5,0.9-0.4,1.2l0.2,1.6l0.2,1.6c0,0.2,0,0.3,0,0.5"/>
	<line clip-path="url(#SVGID_2_)" fill="none" stroke="#53585F" stroke-miterlimit="10" x1="22.2" y1="20.6" x2="23.5" y2="19.3"/>
	<path clip-path="url(#SVGID_2_)" fill="none" stroke="#53585F" stroke-miterlimit="10" d="M20.4,27c0,0,0,2.9-2.6,3"/>
	<path clip-path="url(#SVGID_2_)" fill="none" stroke="#53585F" stroke-miterlimit="10" d="M17.9,14.2c0,0,1.1,0.3,2.3,0.4
		c0.9,0.1,1.8,0.2,2.9,1c0.4,0.4,0.7,0.8,0.8,1.3c0.2,0.8,0.1,1.6-0.4,2.3"/>
</g>
</svg>
