<?xml version="1.0" encoding="utf-8"?>
<!-- Generator: Adobe Illustrator 18.0.0, SVG Export Plug-In . SVG Version: 6.00 Build 0)  -->
<!DOCTYPE svg PUBLIC "-//W3C//DTD SVG 1.1//EN" "http://www.w3.org/Graphics/SVG/1.1/DTD/svg11.dtd">
<svg version="1.1" id="Layer_1" xmlns="http://www.w3.org/2000/svg" xmlns:xlink="http://www.w3.org/1999/xlink" x="0px" y="0px"
	 viewBox="82.8 400 54.5 56.3" enable-background="new 82.8 400 54.5 56.3" xml:space="preserve">
<path fill="none" stroke="#53585F" stroke-miterlimit="10" d="M134,426.4l-1-1c-1.3-1.3-2-3.7-1.5-5.4l0.4-1.3
	c0.5-1.7-0.5-3.5-2.3-3.9l-1.4-0.3c-1.8-0.4-3.6-2.2-4-4L124,409c-0.4-1.8-2.2-2.8-4-2.3l-1.3,0.4c-1.7,0.5-4.2-0.1-5.4-1.5l-1-1
	c-1.3-1.3-3.3-1.3-4.6,0l-1,1c-1.3,1.3-3.7,2-5.4,1.5l-1.3-0.4c-1.7-0.5-3.5,0.5-3.9,2.3l-0.3,1.4c-0.4,1.8-2.2,3.6-4,4l-1.4,0.3
	c-1.8,0.4-2.8,2.2-2.3,3.9l0.4,1.3c0.5,1.7-0.1,4.2-1.5,5.4l-1,1c-1.3,1.3-1.3,3.3,0,4.6l1,1c1.3,1.3,2,3.7,1.5,5.4l-0.4,1.3
	c-0.5,1.7,0.5,3.5,2.3,3.9l1.4,0.3c1.8,0.4,3.6,2.2,4,4l0.3,1.4c0.4,1.8,2.2,2.8,4,2.3l1.3-0.4c1.7-0.5,4.2,0.2,5.4,1.5l1,1
	c1.3,1.3,3.3,1.3,4.6,0l1-1c1.3-1.3,3.7-2,5.4-1.5l1.3,0.4c1.7,0.5,3.5-0.5,4-2.3l0.3-1.4c0.4-1.8,2.2-3.6,4-4l1.4-0.3
	c1.8-0.4,2.8-2.2,2.3-4l-0.4-1.3c-0.5-1.7,0.2-4.2,1.5-5.4l1-1C135.3,429.7,135.3,427.6,134,426.4z"/>
<circle fill="none" stroke="#53585F" stroke-miterlimit="10" cx="110" cy="428.7" r="17.7"/>
<g>
	<path id="XMLID_196_" fill="none" stroke="#53585F" stroke-width="0.75" stroke-miterlimit="10" d="M118.6,428.5
		c0-4.3-3.2-7.9-7.4-8.5v-1c0-0.7-0.5-1.2-1.2-1.2c-0.7,0-1.2,0.5-1.2,1.2v1c-4.2,0.6-7.4,4.2-7.4,8.5v0.5h-1.1
		c-0.7,0-1.2,0.5-1.2,1.2c0,0.7,0.5,1.2,1.2,1.2h19.5c0.7,0,1.2-0.5,1.2-1.2c0-0.7-0.5-1.2-1.2-1.2h-1.1V428.5z"/>
	
		<line fill="none" stroke="#53585F" stroke-width="0.75" stroke-linecap="round" stroke-linejoin="round" stroke-miterlimit="10" x1="99" y1="433.6" x2="121" y2="433.6"/>
</g>
</svg>
