<?xml version="1.0" encoding="utf-8"?>
<!-- Generator: Adobe Illustrator 18.0.0, SVG Export Plug-In . SVG Version: 6.00 Build 0)  -->
<!DOCTYPE svg PUBLIC "-//W3C//DTD SVG 1.1//EN" "http://www.w3.org/Graphics/SVG/1.1/DTD/svg11.dtd">
<svg version="1.1" id="Layer_1" xmlns="http://www.w3.org/2000/svg" xmlns:xlink="http://www.w3.org/1999/xlink" x="0px" y="0px"
	 viewBox="-358.8 567.4 77 63" enable-background="new -358.8 567.4 77 63" xml:space="preserve">
<g>
	<g>
		<path fill="none" stroke="#53585F" stroke-linecap="round" stroke-linejoin="round" stroke-miterlimit="10" d="M-354.2,597.3
			c-1.3-0.2-2.6,0.5-3.1,1.8h0v4.7c0.7,1.2,2,1.8,3.3,1.7c1.5-0.1,3,0,4.7,0v-9.2l-0.1,1.1C-351,597.3-352.6,597.4-354.2,597.3z"/>
		<path fill="none" stroke="#53585F" stroke-linecap="round" stroke-linejoin="round" stroke-miterlimit="10" d="M-290.9,596.4
			l-0.1-0.9h-58.2l-0.1,0.8v9.2v2.4c0,1.9,0,3.9,0,5.8c0,7.6,5.5,14,13,15.1c0.2,0.1,0.4,0.1,0.6,0.2h31.1c0.9-0.2,1.7-0.4,2.6-0.6
			c6.6-1.8,11.1-7.8,11.1-14.6c0-2.1,0-4.2,0-6.4c0-0.6,0-1.2,0-1.9V596.4z"/>
		<path fill="none" stroke="#53585F" stroke-linecap="round" stroke-linejoin="round" stroke-miterlimit="10" d="M-286.3,605.5
			c1.7,0.1,3-0.5,3.6-2.1v-3.8c-0.5-1.7-1.7-2.4-3.5-2.3c-1.5,0.1-3.1,0-4.7,0l-0.1-0.9v9.1C-289.3,605.5-287.8,605.4-286.3,605.5z"
			/>
	</g>
	<path fill="none" stroke="#53585F" stroke-linecap="round" stroke-linejoin="round" stroke-miterlimit="10" d="M-290.3,587.8
		l-57.7,5.1c-0.5-1.5-0.4-3.1,0.3-4.5c1.1-2,2.7-3.6,4.6-4.8c3.2-2.1,6.8-3.5,10.6-4.1c2.2-0.3,4.5-0.9,6.7-1.4
		c0.3-0.2,0.6-0.4,0.9-0.7l-0.2-0.3h-0.9c-0.2,0-0.4,0-0.6,0c-1.7-0.3-2.4-1.7-2.3-4.7c0-1.3,1-2.4,2.3-2.5c3.8-0.4,7.6-0.7,11.4-1
		c1.7-0.1,2.6,0.7,2.8,2.5c0.1,0.5,0.1,1.1,0.2,1.6c0.1,1.9-0.5,2.7-2.4,3.1c-0.3,0.2-0.6,0.4-0.9,0.6l0.1,0.6h9
		c4.1,0,8.2,1.1,11.8,3.1c0.9,0.6,1.8,1.2,2.6,2C-290.6,583.9-289.9,585.9-290.3,587.8z"/>
	<path fill="none" stroke="#53585F" stroke-linecap="round" stroke-linejoin="round" stroke-miterlimit="10" d="M-289.5,590.2
		c0.5-0.7,1-1.5,1.5-2.2c1.7-2.8,1.6-4.5-0.5-7c-1-1.1-1.9-2.2-2.6-3.4c-1.6-2.8-1-6.3,1.4-8.5"/>
	<path fill="none" stroke="#53585F" stroke-linecap="round" stroke-linejoin="round" stroke-miterlimit="10" d="M-338.6,623.5
		c-0.1,0-0.1-0.1-0.2-0.1c-0.2-0.1-0.3-0.2-0.5-0.3c-3.2-2.3-5.1-6-5.1-10c-0.1-3.5,0-7.1,0-10.6"/>
</g>
</svg>
